<svg xmlns="http://www.w3.org/2000/svg" xmlns:xlink="http://www.w3.org/1999/xlink" width="101.72" height="101.72" viewBox="0 0 101.72 101.72"><defs><style>.a{fill:#4ac8eb;}.b{clip-path:url(#a);}.c{fill:#a57561;}.d{fill:#eb6d4a;}.e{fill:#141720;}.f{fill:#fff;}</style><clipPath id="a"><circle cx="50.86" cy="50.86" r="50.86"/></clipPath></defs><g transform="translate(-0.001 -0.001)"><g transform="translate(0.001 0.001)"><circle class="a" cx="50.86" cy="50.86" r="50.86" transform="translate(0 0)"/><g class="b" transform="translate(0 0)"><path class="c" d="M98.472,161.682v.005H39.507v-.005a29.368,29.368,0,0,1,8.7-20.911c.25-.25.5-.489.761-.728a29.233,29.233,0,0,1,2.429-2.018c.556-.417,1.134-.806,1.718-1.183s1.184-.734,1.8-1.068a.035.035,0,0,1,.023-.011c.238-.134.472-.267.706-.411a16.969,16.969,0,0,0,1.995-1.384,18.688,18.688,0,0,0,5.948-8.293v-.006a18.542,18.542,0,0,0,1.09-6.293l8.716.039a18.573,18.573,0,0,0,6.987,14.557c.183.15.372.295.561.434.261.195.528.384.795.562.2.133.406.267.612.389.228.139.461.278.695.405a.191.191,0,0,1,.056.022l.05.033q1.026.567,1.995,1.2c.217.139.434.283.644.434.278.2.562.4.834.611h.011A29.409,29.409,0,0,1,98.472,161.682Z" transform="translate(-18.149 -54.837)"/><path class="d" d="M98.472,174.08H39.507a29.368,29.368,0,0,1,8.7-20.911c.25-.25.5-.489.761-.728a29.183,29.183,0,0,1,2.429-2.023c.556-.412,1.134-.806,1.718-1.179s1.184-.734,1.8-1.068a.035.035,0,0,1,.023-.011c.238-.134.472-.267.706-.411a16.971,16.971,0,0,0,1.995-1.384,15.906,15.906,0,0,0,22.74.005c.183.15.372.295.561.434.261.195.528.384.795.562.2.133.406.267.612.389.228.144.461.278.695.405a.191.191,0,0,1,.056.022.249.249,0,0,1,.05.028c.684.378,1.351.778,1.995,1.206.217.139.434.283.644.434.278.2.562.4.834.611h.011A29.407,29.407,0,0,1,98.472,174.08Z" transform="translate(-18.149 -67.235)"/><path class="c" d="M52.183,46.81V65.255c0,15.666,13.752,28.365,22.63,28.365s22.63-12.7,22.63-28.365V46.81Z" transform="translate(-23.971 -21.503)"/><path class="e" d="M52.183,64.206h0A2.018,2.018,0,0,0,54.2,62.188V49.356H52.183Z" transform="translate(-23.971 -22.673)"/><path class="e" d="M134.184,64.206h0V49.356h-2.018V62.188A2.017,2.017,0,0,0,134.184,64.206Z" transform="translate(-60.713 -22.673)"/><path class="e" d="M97.442,31.747c0,2.64-.177,3.277-2.019,3.136-.074-1.28-9.267-2.323-20.6-2.323S54.281,33.6,54.207,34.883c-1.841.141-2.019-.5-2.019-3.136,0-.259.008-.532.015-.821.281-6.516,3.956-18.7,22.617-18.7s22.328,12.181,22.608,18.7C97.435,31.215,97.442,31.488,97.442,31.747Z" transform="translate(-23.974 -5.618)"/></g><g class="b" transform="translate(0 0)"><path class="f" d="M95.785,146.119A36.36,36.36,0,0,1,84.412,162.5a36.337,36.337,0,0,1-11.367-16.381l.089.033a16.9,16.9,0,0,0,22.551.006C95.718,146.147,95.751,146.13,95.785,146.119Z" transform="translate(-33.555 -67.122)"/></g></g></g></svg>